<?xml version="1.0" standalone="no"?>
<!DOCTYPE svg PUBLIC "-//W3C//DTD SVG 20010904//EN"
 "http://www.w3.org/TR/2001/REC-SVG-20010904/DTD/svg10.dtd">
<svg version="1.0" xmlns="http://www.w3.org/2000/svg"
 width="1275.000000pt" height="1651.000000pt" viewBox="0 0 1275.000000 1651.000000"
 preserveAspectRatio="xMidYMid meet">
<metadata>
Created by potrace 1.16, written by Peter Selinger 2001-2019
</metadata>
<g transform="translate(0.000000,1651.000000) scale(0.100000,-0.100000)"
fill="#000000" stroke="none">
<path d="M1202 15228 l1 -73 6 55 6 55 12 -32 c7 -18 15 -33 18 -33 3 0 11 15
18 33 l12 32 6 -55 6 -55 1 73 c2 79 -10 93 -29 35 l-12 -37 -14 37 c-9 20
-19 37 -24 37 -5 0 -8 -33 -7 -72z"/>
<path d="M1335 15259 c-4 -6 -4 -13 0 -17 3 -3 10 0 15 7 8 14 40 9 40 -7 0
-4 -15 -12 -32 -17 -26 -8 -33 -15 -33 -35 0 -24 3 -25 55 -26 30 -1 49 1 43
3 -7 3 -13 20 -13 38 0 18 -3 40 -6 49 -7 18 -59 22 -69 5z m55 -58 c0 -14
-28 -33 -40 -26 -20 12 -10 35 15 35 14 0 25 -4 25 -9z"/>
<path d="M1460 15256 c-15 -19 -7 -20 20 -3 17 10 22 9 30 -3 5 -8 6 -16 2
-17 -4 -1 -19 -4 -34 -7 -22 -5 -28 -12 -28 -32 0 -29 25 -42 51 -25 12 7 19
7 19 1 0 -5 7 -10 16 -10 12 0 14 3 6 13 -6 7 -12 30 -14 52 -3 35 -7 40 -29
43 -14 2 -31 -4 -39 -12z m50 -66 c-6 -11 -17 -20 -25 -20 -8 0 -15 9 -15 20
0 15 7 20 25 20 23 0 24 -2 15 -20z"/>
<path d="M1581 15210 l2 -55 6 43 c4 23 13 48 19 54 18 18 40 -8 45 -55 3 -31
4 -27 3 13 l-1 55 -37 0 -38 1 1 -56z"/>
<path d="M1710 15256 c-15 -19 -7 -20 20 -3 17 10 22 9 30 -3 5 -8 6 -16 2
-17 -4 -1 -19 -4 -34 -7 -22 -5 -28 -12 -28 -32 0 -29 25 -42 51 -25 12 7 19
7 19 1 0 -5 7 -10 16 -10 12 0 14 3 6 13 -6 7 -12 30 -14 52 -3 35 -7 40 -29
43 -14 2 -31 -4 -39 -12z m50 -66 c-6 -11 -17 -20 -25 -20 -8 0 -15 9 -15 20
0 15 7 20 25 20 23 0 24 -2 15 -20z"/>
<path d="M1834 15254 c3 -9 6 -33 6 -55 0 -21 5 -39 10 -39 6 0 10 18 10 40 0
28 5 42 19 49 10 6 21 7 25 4 3 -3 6 -1 6 5 0 16 -33 15 -48 0 -9 -9 -12 -9
-12 0 0 7 -5 12 -11 12 -6 0 -8 -7 -5 -16z"/>
</g>
</svg>
